<?xml version="1.0" encoding="UTF-8"?>
<!-- Created with Inkscape (http://www.inkscape.org/) -->
<svg width="32" height="32" version="1.1" viewBox="0 0 32 32" xml:space="preserve" xmlns="http://www.w3.org/2000/svg"><g transform="matrix(1.3333 0 0 1.3333 -305.23 -64.438)"><path d="m240.97 48.329c-0.50142-5.21e-4 -1.003 0.03028-1.5008 0.09299-2.4696 0.31657-4.8295 1.4031-6.6624 3.0885-3.6442 3.1927-4.8869 8.7506-3.0126 13.208 1.2393 3.0398 3.7485 5.5527 6.817 6.7398 3.2376 1.2501 7.0202 0.99639 10.062-0.6782 1.9948-1.0522 3.5721-2.7611 4.7287-4.6731 1.4174-2.4318 1.8384-5.3816 1.3024-8.1318-0.65652-3.2502-2.7557-6.1353-5.5455-7.8963-1.8458-1.1545-4.0158-1.7475-6.1887-1.7498zm-0.0245 1.4273c0.39796 0.01169 0.79375 0.13715 1.1211 0.37098 1.1925 0.78603 1.8689 2.1243 2.4085 3.4068-2.3545 0.39751-4.7774 0.30402-7.139 0.0019 0.52702-1.3184 1.2212-2.7035 2.4749-3.4679 0.33635-0.22124 0.7366-0.32339 1.1346-0.3117zm3.3678 0.55278c1.3346 0.51263 2.7104 1.1458 3.6745 2.2304-0.6871 0.28779-1.4046 0.48921-2.1205 0.68347-0.42989-1.0163-0.91008-2.0145-1.554-2.9138zm-6.871 0.05033c-0.70509 0.84179-1.1314 1.8652-1.5379 2.8725-0.71947-0.18347-1.4407-0.3975-2.072-0.79861 1.1134-0.8292 2.2663-1.6602 3.61-2.0739zm11.763 3.1889c1.3778 1.6962 2.1889 3.8097 2.3832 5.9808-0.47126 0.0036-0.94231 0.0037-1.4136 0.0037-5e-3 0.47485-8e-3 0.94952-8e-3 1.4244l1.4138 0.0055c-0.29857 2.1458-0.99646 4.342-2.4588 5.9842-0.94611-0.26981-1.8508-0.68173-2.8095-0.92455 0.0972-0.57558 0.22467-1.1438 0.32541-1.7176-0.47667-0.0071-0.95322-0.0036-1.4281 0.01976-0.0774 0.44967-0.17445 0.89574-0.28958 1.3382-2.6657-0.43708-5.3834-0.34721-8.0509 0.02872-0.10971-0.45327-0.20145-0.91016-0.26979-1.3706-0.47665-0.01799-0.95163-0.02336-1.4265-0.01975 0.0989 0.59177 0.223 1.1799 0.32012 1.7735-0.93711 0.15649-1.7537 0.70327-2.6746 0.88134-1.4138-1.6512-2.2304-3.8258-2.3366-5.9968h1.1585c-2e-3 -0.47486-3e-3 -0.95137-8e-3 -1.4262-0.38672 0-0.77155-0.0019-1.1583-0.0019 0.10262-2.1782 0.98393-4.2774 2.3258-5.9808 0.89756 0.40471 1.8366 0.71064 2.7845 0.97145-0.14029 0.51263-0.22312 1.0378-0.26269 1.5667 0.44966 0.0019 0.8994 0.0017 1.3509 0.0053 0.10429-0.42629 0.19597-0.85441 0.26611-1.2879 2.6513 0.43169 5.362 0.49124 8.0132 0.01818 0.12592 0.4173 0.21404 0.84519 0.25901 1.2787 0.47486 0.03418 0.95137 0.03775 1.4262 0.03056-0.0901-0.52702-0.20139-1.0486-0.29854-1.5738 0.98569-0.24462 1.9354-0.60987 2.8654-1.011zm-5.625 3.63c-0.20843-4.5e-4 -0.41685 0.0017-0.6255 0.0071-0.0935 1.4893-9e-3 2.9857-0.0486 4.4786-0.75904-1.2753-1.4119-2.6099-2.1566-3.8924-0.34534-0.72307-1.306-0.68889-1.9337-0.3939-7e-3 2.0127-0.0591 4.0291 0.0271 6.04 0.42089 9e-3 0.84714 0.0019 1.2536-0.12041-0.0127-1.5163 7e-3 -3.0308-0.0127-4.5453 0.46406 1.2231 1.1657 2.3311 1.7484 3.4985 0.20865 0.44788 0.48928 0.85429 0.83102 1.2104 0.36334-0.01799 0.7428 0.03784 1.0971-0.07009 0.16907-0.16728 0.31101-0.35988 0.46031-0.54514-0.0127-1.8868 0.0163-3.7717-0.0142-5.6585-0.20955-0.0054-0.41814-0.0085-0.62657-9e-3zm-9.7562 0.0095c-0.32173 0.0016-0.63872 0.03446-0.93641 0.17205 0.0161 2.0253-0.0487 4.0508 0.034 6.0743 1.1727 9e-3 2.4228 0.17251 3.5183-0.34911 0.9335-0.39931 1.3688-1.4585 1.4623-2.4082 0.0414-0.78963 0.0882-1.682-0.42446-2.3421-0.61516-0.8292-1.6944-1.153-2.6891-1.1314-0.31655 0.01259-0.64284-0.01711-0.96459-0.01555zm13.307 0.09011c-0.34038 5e-3 -0.67866 0.07502-0.99096 0.21869-0.93893 0.4173-1.2482 1.734-0.67978 2.565 0.57738 0.77884 1.8059 0.68172 2.2952 1.5469 0.25542 0.63314-0.554 1.1205-1.1098 0.96039-0.63316 0.0071-1.0649-0.64746-1.7034-0.55752 0.045 0.34715-0.027 0.75555 0.22475 1.0415 0.94072 0.72308 2.3472 0.66905 3.2664-0.06482 0.59718-0.50543 0.84193-1.403 0.53435-2.1279-0.52342-0.89215-1.7988-0.79867-2.3816-1.6207-0.1529-0.39212 0.18729-0.86144 0.601-0.85605 0.56477-0.08274 1.052 0.24454 1.5485 0.45319 0.0108-0.35974 0.0128-0.71952 8e-3 -1.0811-0.471-0.31365-1.0447-0.48602-1.612-0.47769zm-13.035 0.91665c0.71046 0.0036 1.5648-0.03612 2.063 0.57544 0.59179 0.78963 0.59556 1.9138 0.23583 2.8024-0.44248 0.822-1.4733 0.89587-2.2989 0.84551-2e-3 -1.4084-2e-3 -2.815 0-4.2233zm6.8025 8.6764c1.1905 0.0082 2.3815 0.102 3.5615 0.254-0.47665 1.2933-1.1961 2.5902-2.3634 3.3762-0.69608 0.49464-1.6781 0.47832-2.3724-0.0055-1.1871-0.76804-1.8762-2.0865-2.3834-3.3636 1.1772-0.19156 2.3673-0.2692 3.5578-0.26111zm4.9969 0.49508c0.71048 0.19246 1.4335 0.36859 2.1134 0.65818 0.0127 0.04497 0.0361 0.13315 0.0487 0.17811-1.108 0.90654-2.3743 1.6261-3.7359 2.0794 0.6889-0.87417 1.1691-1.885 1.5738-2.9157zm-10.003 0.06824c0.42629 1.0127 0.93359 1.9859 1.5074 2.9212-1.2555-0.59716-2.4624-1.2987-3.5398-2.1819 0.59897-0.42629 1.3436-0.53068 2.0325-0.73933z" fill="#008fdf"/></g></svg>
